<svg width="128" height="128" viewBox="0 0 128 128" fill="none" xmlns="http://www.w3.org/2000/svg">
<rect width="128" height="128" fill="white"/>
<path d="M44.792 88H24.568C23.7573 88 23.16 87.8293 22.776 87.488C22.4347 87.104 22.264 86.5067 22.264 85.696V78.208C22.264 77.3973 22.4347 76.8213 22.776 76.48C23.16 76.096 23.7573 75.904 24.568 75.904H41.784C42.3387 75.904 42.744 75.7333 43 75.392C43.2987 75.008 43.448 74.56 43.448 74.048C43.448 73.3227 43.2987 72.7893 43 72.448C42.744 72.1067 42.3387 71.9147 41.784 71.872L32.184 70.528C29.1973 70.1013 26.7867 69.12 24.952 67.584C23.16 66.048 22.264 63.488 22.264 59.904V53.184C22.264 49.5573 23.4373 46.784 25.784 44.864C28.1307 42.9013 31.3733 41.92 35.512 41.92H53.432C54.2427 41.92 54.8187 42.112 55.16 42.496C55.544 42.8373 55.736 43.4133 55.736 44.224V51.84C55.736 52.6507 55.544 53.248 55.16 53.632C54.8187 53.9733 54.2427 54.144 53.432 54.144H38.52C37.9653 54.144 37.5387 54.336 37.24 54.72C36.9413 55.0613 36.792 55.5093 36.792 56.064C36.792 56.6187 36.9413 57.088 37.24 57.472C37.5387 57.856 37.9653 58.0693 38.52 58.112L48.056 59.392C51.0427 59.8187 53.4533 60.8 55.288 62.336C57.1227 63.872 58.04 66.432 58.04 70.016V76.736C58.04 80.3627 56.8453 83.1573 54.456 85.12C52.1093 87.04 48.888 88 44.792 88Z" fill="black"/>
<path d="M88.913 88H67.345C66.5343 88 65.937 87.8293 65.553 87.488C65.2117 87.104 65.041 86.5067 65.041 85.696V44.224C65.041 43.4133 65.2117 42.8373 65.553 42.496C65.937 42.112 66.5343 41.92 67.345 41.92H88.913C94.2463 41.92 98.193 42.9867 100.753 45.12C103.356 47.2533 104.657 50.5387 104.657 54.976V74.944C104.657 79.3813 103.356 82.6667 100.753 84.8C98.193 86.9333 94.2463 88 88.913 88ZM79.569 54.144V75.904H87.185C88.209 75.904 88.9557 75.648 89.425 75.136C89.937 74.624 90.193 73.8347 90.193 72.768V57.216C90.193 56.1493 89.937 55.3813 89.425 54.912C88.9557 54.4 88.209 54.144 87.185 54.144H79.569Z" fill="#007ACC"/>
</svg>
