<svg width="137" height="19" viewBox="0 0 137 19" fill="none" xmlns="http://www.w3.org/2000/svg">
<path d="M8.672 18H1.088C0.784 18 0.56 17.936 0.416 17.808C0.288 17.664 0.224 17.44 0.224 17.136V14.328C0.224 14.024 0.288 13.808 0.416 13.68C0.56 13.536 0.784 13.464 1.088 13.464H7.544C7.752 13.464 7.904 13.4 8 13.272C8.112 13.128 8.168 12.96 8.168 12.768C8.168 12.496 8.112 12.296 8 12.168C7.904 12.04 7.752 11.968 7.544 11.952L3.944 11.448C2.824 11.288 1.92 10.92 1.232 10.344C0.56 9.768 0.224 8.808 0.224 7.464V4.944C0.224 3.584 0.664 2.544 1.544 1.824C2.424 1.088 3.64 0.719999 5.192 0.719999H11.912C12.216 0.719999 12.432 0.791999 12.56 0.935999C12.704 1.064 12.776 1.28 12.776 1.584V4.44C12.776 4.744 12.704 4.968 12.56 5.112C12.432 5.24 12.216 5.304 11.912 5.304H6.32C6.112 5.304 5.952 5.376 5.84 5.52C5.728 5.648 5.672 5.816 5.672 6.024C5.672 6.232 5.728 6.408 5.84 6.552C5.952 6.696 6.112 6.776 6.32 6.792L9.896 7.272C11.016 7.432 11.92 7.8 12.608 8.376C13.296 8.952 13.64 9.912 13.64 11.256V13.776C13.64 15.136 13.192 16.184 12.296 16.92C11.416 17.64 10.208 18 8.672 18ZM30.9054 13.464C30.9054 14.2 30.7934 14.872 30.5694 15.48C30.3614 16.072 29.9774 16.584 29.4174 17.016C28.8734 17.432 28.1134 17.76 27.1374 18C26.1774 18.24 24.9534 18.36 23.4654 18.36C21.9774 18.36 20.7454 18.24 19.7694 18C18.7934 17.76 18.0254 17.432 17.4654 17.016C16.9214 16.584 16.5374 16.072 16.3134 15.48C16.1054 14.872 16.0014 14.2 16.0014 13.464V5.28C16.0014 4.544 16.1054 3.88 16.3134 3.288C16.5374 2.68 16.9214 2.16 17.4654 1.728C18.0254 1.296 18.7934 0.959999 19.7694 0.719999C20.7454 0.48 21.9774 0.36 23.4654 0.36C24.9534 0.36 26.1774 0.48 27.1374 0.719999C28.1134 0.959999 28.8734 1.296 29.4174 1.728C29.9774 2.16 30.3614 2.68 30.5694 3.288C30.7934 3.88 30.9054 4.544 30.9054 5.28V13.464ZM21.4494 12.6C21.4494 12.92 21.5694 13.192 21.8094 13.416C22.0494 13.624 22.6014 13.728 23.4654 13.728C24.3294 13.728 24.8814 13.624 25.1214 13.416C25.3614 13.192 25.4814 12.92 25.4814 12.6V6.144C25.4814 5.84 25.3614 5.584 25.1214 5.376C24.8814 5.152 24.3294 5.04 23.4654 5.04C22.6014 5.04 22.0494 5.152 21.8094 5.376C21.5694 5.584 21.4494 5.84 21.4494 6.144V12.6ZM47.0407 18H34.8247C34.5207 18 34.2967 17.936 34.1527 17.808C34.0247 17.664 33.9607 17.44 33.9607 17.136V1.584C33.9607 1.28 34.0247 1.064 34.1527 0.935999C34.2967 0.791999 34.5207 0.719999 34.8247 0.719999H38.5447C38.8487 0.719999 39.0647 0.791999 39.1927 0.935999C39.3367 1.064 39.4087 1.28 39.4087 1.584V13.464H42.6967V9.576C42.6967 9.272 42.7607 9.056 42.8887 8.928C43.0327 8.784 43.2567 8.712 43.5607 8.712H47.0407C47.3447 8.712 47.5607 8.784 47.6887 8.928C47.8327 9.056 47.9047 9.272 47.9047 9.576V17.136C47.9047 17.44 47.8327 17.664 47.6887 17.808C47.5607 17.936 47.3447 18 47.0407 18ZM51.1282 18C50.8242 18 50.6002 17.936 50.4562 17.808C50.3282 17.664 50.2642 17.44 50.2642 17.136V14.28C50.2642 13.976 50.3282 13.76 50.4562 13.632C50.6002 13.488 50.8242 13.416 51.1282 13.416H53.5042V5.352H51.1282C50.8242 5.352 50.6002 5.288 50.4562 5.16C50.3282 5.016 50.2642 4.792 50.2642 4.488V1.584C50.2642 1.28 50.3282 1.064 50.4562 0.935999C50.6002 0.791999 50.8242 0.719999 51.1282 0.719999H61.3522C61.6562 0.719999 61.8722 0.791999 62.0002 0.935999C62.1442 1.064 62.2162 1.28 62.2162 1.584V4.488C62.2162 4.792 62.1442 5.016 62.0002 5.16C61.8722 5.288 61.6562 5.352 61.3522 5.352H59.0242V13.416H61.3522C61.6562 13.416 61.8722 13.488 62.0002 13.632C62.1442 13.76 62.2162 13.976 62.2162 14.28V17.136C62.2162 17.44 62.1442 17.664 62.0002 17.808C61.8722 17.936 61.6562 18 61.3522 18H51.1282ZM74.1314 18H66.0434C65.7394 18 65.5154 17.936 65.3714 17.808C65.2434 17.664 65.1794 17.44 65.1794 17.136V1.584C65.1794 1.28 65.2434 1.064 65.3714 0.935999C65.5154 0.791999 65.7394 0.719999 66.0434 0.719999H74.1314C76.1314 0.719999 77.6114 1.12 78.5714 1.92C79.5474 2.72 80.0354 3.952 80.0354 5.616V13.104C80.0354 14.768 79.5474 16 78.5714 16.8C77.6114 17.6 76.1314 18 74.1314 18ZM70.6274 5.304V13.464H73.4834C73.8674 13.464 74.1474 13.368 74.3234 13.176C74.5154 12.984 74.6114 12.688 74.6114 12.288V6.456C74.6114 6.056 74.5154 5.768 74.3234 5.592C74.1474 5.4 73.8674 5.304 73.4834 5.304H70.6274Z" fill="black"/>
<path d="M97.4283 18H89.3403C89.0363 18 88.8123 17.936 88.6683 17.808C88.5403 17.664 88.4763 17.44 88.4763 17.136V1.584C88.4763 1.28 88.5403 1.064 88.6683 0.935999C88.8123 0.791999 89.0363 0.719999 89.3403 0.719999H97.4283C99.4283 0.719999 100.908 1.12 101.868 1.92C102.844 2.72 103.332 3.952 103.332 5.616V13.104C103.332 14.768 102.844 16 101.868 16.8C100.908 17.6 99.4283 18 97.4283 18ZM93.9243 5.304V13.464H96.7803C97.1643 13.464 97.4443 13.368 97.6203 13.176C97.8123 12.984 97.9083 12.688 97.9083 12.288V6.456C97.9083 6.056 97.8123 5.768 97.6203 5.592C97.4443 5.4 97.1643 5.304 96.7803 5.304H93.9243ZM118.383 18H107.247C106.943 18 106.719 17.936 106.575 17.808C106.447 17.664 106.383 17.44 106.383 17.136V1.584C106.383 1.28 106.447 1.064 106.575 0.935999C106.719 0.791999 106.943 0.719999 107.247 0.719999H118.383C118.687 0.719999 118.903 0.791999 119.031 0.935999C119.175 1.064 119.247 1.28 119.247 1.584V4.392C119.247 4.696 119.175 4.92 119.031 5.064C118.903 5.192 118.687 5.256 118.383 5.256H111.759V7.104H116.439C116.743 7.104 116.959 7.176 117.087 7.32C117.231 7.448 117.303 7.664 117.303 7.968V10.536C117.303 10.84 117.231 11.064 117.087 11.208C116.959 11.336 116.743 11.4 116.439 11.4H111.759V13.464H118.383C118.687 13.464 118.903 13.536 119.031 13.68C119.175 13.808 119.247 14.024 119.247 14.328V17.136C119.247 17.44 119.175 17.664 119.031 17.808C118.903 17.936 118.687 18 118.383 18ZM132.31 18H126.07C125.766 18 125.51 17.944 125.302 17.832C125.11 17.72 124.958 17.512 124.846 17.208L122.494 11.328C122.35 10.976 122.23 10.672 122.134 10.416C122.038 10.144 121.958 9.888 121.894 9.648C121.83 9.408 121.782 9.16 121.75 8.904C121.734 8.632 121.726 8.304 121.726 7.92V1.584C121.726 1.28 121.79 1.064 121.918 0.935999C122.062 0.791999 122.286 0.719999 122.59 0.719999H126.406C126.71 0.719999 126.942 0.791999 127.102 0.935999C127.262 1.064 127.342 1.28 127.342 1.584V8.208C127.342 8.368 127.358 8.528 127.39 8.688C127.422 8.848 127.47 9.016 127.534 9.192L128.662 12.552C128.71 12.712 128.766 12.824 128.83 12.888C128.894 12.936 128.99 12.96 129.118 12.96H129.382C129.51 12.96 129.606 12.936 129.67 12.888C129.734 12.824 129.79 12.712 129.838 12.552L130.966 9.168C131.03 8.992 131.078 8.824 131.11 8.664C131.142 8.504 131.158 8.344 131.158 8.184V1.584C131.158 1.28 131.222 1.064 131.35 0.935999C131.494 0.791999 131.718 0.719999 132.022 0.719999H135.79C136.094 0.719999 136.31 0.791999 136.438 0.935999C136.582 1.064 136.654 1.28 136.654 1.584V7.92C136.654 8.304 136.638 8.632 136.606 8.904C136.59 9.16 136.55 9.408 136.486 9.648C136.422 9.888 136.342 10.144 136.246 10.416C136.15 10.672 136.03 10.976 135.886 11.328L133.534 17.208C133.422 17.512 133.262 17.72 133.054 17.832C132.862 17.944 132.614 18 132.31 18Z" fill="#007ACC"/>
</svg>
